solid Rounded_U
facet normal 0.0 1.621800000000003e-05 8.790000000000013e-07
	outer loop
		vertex -0.005 -0.0149121 0.0233782
		vertex -0.005 -0.015 0.025
		vertex 0.005 -0.015 0.025
	endloop
endfacet
facet normal 0.0 1.602799999999998e-05 2.6279999999999882e-06
	outer loop
		vertex -0.005 -0.0146493 0.0217754
		vertex -0.005 -0.0149121 0.0233782
		vertex 0.005 -0.0149121 0.0233782
	endloop
endfacet
facet normal 0.0 1.564900000000001e-05 4.345000000000008e-06
	outer loop
		vertex -0.005 -0.0142148 0.0202105
		vertex -0.005 -0.0146493 0.0217754
		vertex 0.005 -0.0146493 0.0217754
	endloop
endfacet
facet normal 0.0 1.5087999999999976e-05 6.011999999999997e-06
	outer loop
		vertex -0.005 -0.0136136 0.0187017
		vertex -0.005 -0.0142148 0.0202105
		vertex 0.005 -0.0142148 0.0202105
	endloop
endfacet
facet normal 0.0 1.4350000000000024e-05 7.606999999999996e-06
	outer loop
		vertex -0.005 -0.0128529 0.0172667
		vertex -0.005 -0.0136136 0.0187017
		vertex 0.005 -0.0136136 0.0187017
	endloop
endfacet
facet normal 0.0 1.3442999999999996e-05 9.115000000000008e-06
	outer loop
		vertex -0.005 -0.0119414 0.0159224
		vertex -0.005 -0.0128529 0.0172667
		vertex 0.005 -0.0128529 0.0172667
	endloop
endfacet
facet normal 0.0 1.2379000000000001e-05 1.0515000000000004e-05
	outer loop
		vertex -0.005 -0.0108899 0.0146845
		vertex -0.005 -0.0119414 0.0159224
		vertex 0.005 -0.0119414 0.0159224
	endloop
endfacet
facet normal 0.0 1.1168999999999987e-05 1.179109999999999e-05
	outer loop
		vertex -0.005 -0.00971079 0.0135676
		vertex -0.005 -0.0108899 0.0146845
		vertex 0.005 -0.0108899 0.0146845
	endloop
endfacet
facet normal 0.0 9.829000000000002e-06 1.292980000000001e-05
	outer loop
		vertex -0.005 -0.00841781 0.0125847
		vertex -0.005 -0.00971079 0.0135676
		vertex 0.005 -0.00971079 0.0135676
	endloop
endfacet
facet normal 0.0 8.374000000000003e-06 1.3916799999999994e-05
	outer loop
		vertex -0.005 -0.00702613 0.0117473
		vertex -0.005 -0.00841781 0.0125847
		vertex 0.005 -0.00841781 0.0125847
	endloop
endfacet
facet normal 0.0 6.820000000000003e-06 1.47406e-05
	outer loop
		vertex -0.005 -0.00555207 0.0110653
		vertex -0.005 -0.00702613 0.0117473
		vertex 0.005 -0.00702613 0.0117473
	endloop
endfacet
facet normal 0.0 5.184999999999999e-06 1.5391400000000006e-05
	outer loop
		vertex -0.005 -0.00401293 0.0105468
		vertex -0.005 -0.00555207 0.0110653
		vertex 0.005 -0.00555207 0.0110653
	endloop
endfacet
facet normal 0.0 3.492000000000009e-06 1.5861999999999995e-05
	outer loop
		vertex -0.005 -0.00242673 0.0101976
		vertex -0.005 -0.00401293 0.0105468
		vertex 0.005 -0.00401293 0.0105468
	endloop
endfacet
facet normal 0.0 1.7559999999999972e-06 1.6146460000000003e-05
	outer loop
		vertex -0.005 -0.000812084 0.010022
		vertex -0.005 -0.00242673 0.0101976
		vertex 0.005 -0.00242673 0.0101976
	endloop
endfacet
facet normal 0.0 0.0 1.624168e-05
	outer loop
		vertex -0.005 0.000812084 0.010022
		vertex -0.005 -0.000812084 0.010022
		vertex 0.005 -0.000812084 0.010022
	endloop
endfacet
facet normal 0.0 -1.7559999999999972e-06 1.6146460000000003e-05
	outer loop
		vertex -0.005 0.00242673 0.0101976
		vertex -0.005 0.000812084 0.010022
		vertex 0.005 0.000812084 0.010022
	endloop
endfacet
facet normal 0.0 -3.492000000000009e-06 1.5861999999999995e-05
	outer loop
		vertex -0.005 0.00401293 0.0105468
		vertex -0.005 0.00242673 0.0101976
		vertex 0.005 0.00242673 0.0101976
	endloop
endfacet
facet normal 0.0 -5.184999999999999e-06 1.5391400000000006e-05
	outer loop
		vertex -0.005 0.00555207 0.0110653
		vertex -0.005 0.00401293 0.0105468
		vertex 0.005 0.00401293 0.0105468
	endloop
endfacet
facet normal 0.0 -6.820000000000003e-06 1.47406e-05
	outer loop
		vertex -0.005 0.00702613 0.0117473
		vertex -0.005 0.00555207 0.0110653
		vertex 0.005 0.00555207 0.0110653
	endloop
endfacet
facet normal 0.0 -8.374000000000003e-06 1.3916799999999994e-05
	outer loop
		vertex -0.005 0.00841781 0.0125847
		vertex -0.005 0.00702613 0.0117473
		vertex 0.005 0.00702613 0.0117473
	endloop
endfacet
facet normal 0.0 -9.829000000000002e-06 1.292980000000001e-05
	outer loop
		vertex -0.005 0.00971079 0.0135676
		vertex -0.005 0.00841781 0.0125847
		vertex 0.005 0.00841781 0.0125847
	endloop
endfacet
facet normal 0.0 -1.1168999999999987e-05 1.179109999999999e-05
	outer loop
		vertex -0.005 0.0108899 0.0146845
		vertex -0.005 0.00971079 0.0135676
		vertex 0.005 0.00971079 0.0135676
	endloop
endfacet
facet normal 0.0 -1.2379000000000001e-05 1.0515000000000004e-05
	outer loop
		vertex -0.005 0.0119414 0.0159224
		vertex -0.005 0.0108899 0.0146845
		vertex 0.005 0.0108899 0.0146845
	endloop
endfacet
facet normal 0.0 -1.3442999999999996e-05 9.115000000000008e-06
	outer loop
		vertex -0.005 0.0128529 0.0172667
		vertex -0.005 0.0119414 0.0159224
		vertex 0.005 0.0119414 0.0159224
	endloop
endfacet
facet normal 0.0 -1.4350000000000024e-05 7.606999999999996e-06
	outer loop
		vertex -0.005 0.0136136 0.0187017
		vertex -0.005 0.0128529 0.0172667
		vertex 0.005 0.0128529 0.0172667
	endloop
endfacet
facet normal 0.0 -1.5087999999999976e-05 6.011999999999997e-06
	outer loop
		vertex -0.005 0.0142148 0.0202105
		vertex -0.005 0.0136136 0.0187017
		vertex 0.005 0.0136136 0.0187017
	endloop
endfacet
facet normal 0.0 -1.564900000000001e-05 4.345000000000008e-06
	outer loop
		vertex -0.005 0.0146493 0.0217754
		vertex -0.005 0.0142148 0.0202105
		vertex 0.005 0.0142148 0.0202105
	endloop
endfacet
facet normal 0.0 -1.602799999999998e-05 2.6279999999999882e-06
	outer loop
		vertex -0.005 0.0149121 0.0233782
		vertex -0.005 0.0146493 0.0217754
		vertex 0.005 0.0146493 0.0217754
	endloop
endfacet
facet normal 0.0 -1.621800000000003e-05 8.790000000000013e-07
	outer loop
		vertex -0.005 0.015 0.025
		vertex -0.005 0.0149121 0.0233782
		vertex 0.005 0.0149121 0.0233782
	endloop
endfacet
facet normal 0.0 -1.621800000000003e-05 8.790000000000013e-07
	outer loop
		vertex 0.005 0.0149121 0.0233782
		vertex 0.005 0.015 0.025
		vertex -0.005 0.015 0.025
	endloop
endfacet
facet normal 0.0 -1.602799999999998e-05 2.6279999999999882e-06
	outer loop
		vertex 0.005 0.0146493 0.0217754
		vertex 0.005 0.0149121 0.0233782
		vertex -0.005 0.0149121 0.0233782
	endloop
endfacet
facet normal 0.0 -1.564900000000001e-05 4.345000000000008e-06
	outer loop
		vertex 0.005 0.0142148 0.0202105
		vertex 0.005 0.0146493 0.0217754
		vertex -0.005 0.0146493 0.0217754
	endloop
endfacet
facet normal 0.0 -1.5087999999999976e-05 6.011999999999997e-06
	outer loop
		vertex 0.005 0.0136136 0.0187017
		vertex 0.005 0.0142148 0.0202105
		vertex -0.005 0.0142148 0.0202105
	endloop
endfacet
facet normal 0.0 -1.4350000000000024e-05 7.606999999999996e-06
	outer loop
		vertex 0.005 0.0128529 0.0172667
		vertex 0.005 0.0136136 0.0187017
		vertex -0.005 0.0136136 0.0187017
	endloop
endfacet
facet normal 0.0 -1.3442999999999996e-05 9.115000000000008e-06
	outer loop
		vertex 0.005 0.0119414 0.0159224
		vertex 0.005 0.0128529 0.0172667
		vertex -0.005 0.0128529 0.0172667
	endloop
endfacet
facet normal 0.0 -1.2379000000000001e-05 1.0515000000000004e-05
	outer loop
		vertex 0.005 0.0108899 0.0146845
		vertex 0.005 0.0119414 0.0159224
		vertex -0.005 0.0119414 0.0159224
	endloop
endfacet
facet normal 0.0 -1.1168999999999987e-05 1.179109999999999e-05
	outer loop
		vertex 0.005 0.00971079 0.0135676
		vertex 0.005 0.0108899 0.0146845
		vertex -0.005 0.0108899 0.0146845
	endloop
endfacet
facet normal 0.0 -9.829000000000002e-06 1.292980000000001e-05
	outer loop
		vertex 0.005 0.00841781 0.0125847
		vertex 0.005 0.00971079 0.0135676
		vertex -0.005 0.00971079 0.0135676
	endloop
endfacet
facet normal 0.0 -8.374000000000003e-06 1.3916799999999994e-05
	outer loop
		vertex 0.005 0.00702613 0.0117473
		vertex 0.005 0.00841781 0.0125847
		vertex -0.005 0.00841781 0.0125847
	endloop
endfacet
facet normal 0.0 -6.820000000000003e-06 1.47406e-05
	outer loop
		vertex 0.005 0.00555207 0.0110653
		vertex 0.005 0.00702613 0.0117473
		vertex -0.005 0.00702613 0.0117473
	endloop
endfacet
facet normal 0.0 -5.184999999999999e-06 1.5391400000000006e-05
	outer loop
		vertex 0.005 0.00401293 0.0105468
		vertex 0.005 0.00555207 0.0110653
		vertex -0.005 0.00555207 0.0110653
	endloop
endfacet
facet normal 0.0 -3.492000000000009e-06 1.5861999999999995e-05
	outer loop
		vertex 0.005 0.00242673 0.0101976
		vertex 0.005 0.00401293 0.0105468
		vertex -0.005 0.00401293 0.0105468
	endloop
endfacet
facet normal 0.0 -1.7559999999999972e-06 1.6146460000000003e-05
	outer loop
		vertex 0.005 0.000812084 0.010022
		vertex 0.005 0.00242673 0.0101976
		vertex -0.005 0.00242673 0.0101976
	endloop
endfacet
facet normal 0.0 -0.0 1.624168e-05
	outer loop
		vertex 0.005 -0.000812084 0.010022
		vertex 0.005 0.000812084 0.010022
		vertex -0.005 0.000812084 0.010022
	endloop
endfacet
facet normal 0.0 1.7559999999999972e-06 1.6146460000000003e-05
	outer loop
		vertex 0.005 -0.00242673 0.0101976
		vertex 0.005 -0.000812084 0.010022
		vertex -0.005 -0.000812084 0.010022
	endloop
endfacet
facet normal 0.0 3.492000000000009e-06 1.5861999999999995e-05
	outer loop
		vertex 0.005 -0.00401293 0.0105468
		vertex 0.005 -0.00242673 0.0101976
		vertex -0.005 -0.00242673 0.0101976
	endloop
endfacet
facet normal 0.0 5.184999999999999e-06 1.5391400000000006e-05
	outer loop
		vertex 0.005 -0.00555207 0.0110653
		vertex 0.005 -0.00401293 0.0105468
		vertex -0.005 -0.00401293 0.0105468
	endloop
endfacet
facet normal 0.0 6.820000000000003e-06 1.47406e-05
	outer loop
		vertex 0.005 -0.00702613 0.0117473
		vertex 0.005 -0.00555207 0.0110653
		vertex -0.005 -0.00555207 0.0110653
	endloop
endfacet
facet normal 0.0 8.374000000000003e-06 1.3916799999999994e-05
	outer loop
		vertex 0.005 -0.00841781 0.0125847
		vertex 0.005 -0.00702613 0.0117473
		vertex -0.005 -0.00702613 0.0117473
	endloop
endfacet
facet normal 0.0 9.829000000000002e-06 1.292980000000001e-05
	outer loop
		vertex 0.005 -0.00971079 0.0135676
		vertex 0.005 -0.00841781 0.0125847
		vertex -0.005 -0.00841781 0.0125847
	endloop
endfacet
facet normal 0.0 1.1168999999999987e-05 1.179109999999999e-05
	outer loop
		vertex 0.005 -0.0108899 0.0146845
		vertex 0.005 -0.00971079 0.0135676
		vertex -0.005 -0.00971079 0.0135676
	endloop
endfacet
facet normal 0.0 1.2379000000000001e-05 1.0515000000000004e-05
	outer loop
		vertex 0.005 -0.0119414 0.0159224
		vertex 0.005 -0.0108899 0.0146845
		vertex -0.005 -0.0108899 0.0146845
	endloop
endfacet
facet normal 0.0 1.3442999999999996e-05 9.115000000000008e-06
	outer loop
		vertex 0.005 -0.0128529 0.0172667
		vertex 0.005 -0.0119414 0.0159224
		vertex -0.005 -0.0119414 0.0159224
	endloop
endfacet
facet normal 0.0 1.4350000000000024e-05 7.606999999999996e-06
	outer loop
		vertex 0.005 -0.0136136 0.0187017
		vertex 0.005 -0.0128529 0.0172667
		vertex -0.005 -0.0128529 0.0172667
	endloop
endfacet
facet normal 0.0 1.5087999999999976e-05 6.011999999999997e-06
	outer loop
		vertex 0.005 -0.0142148 0.0202105
		vertex 0.005 -0.0136136 0.0187017
		vertex -0.005 -0.0136136 0.0187017
	endloop
endfacet
facet normal 0.0 1.564900000000001e-05 4.345000000000008e-06
	outer loop
		vertex 0.005 -0.0146493 0.0217754
		vertex 0.005 -0.0142148 0.0202105
		vertex -0.005 -0.0142148 0.0202105
	endloop
endfacet
facet normal 0.0 1.602799999999998e-05 2.6279999999999882e-06
	outer loop
		vertex 0.005 -0.0149121 0.0233782
		vertex 0.005 -0.0146493 0.0217754
		vertex -0.005 -0.0146493 0.0217754
	endloop
endfacet
facet normal 0.0 1.621800000000003e-05 8.790000000000013e-07
	outer loop
		vertex 0.005 -0.015 0.025
		vertex 0.005 -0.0149121 0.0233782
		vertex -0.005 -0.0149121 0.0233782
	endloop
endfacet
facet normal 0.0 1.0 0.0
	outer loop
		vertex 0.005 -0.015 0.025
		vertex -0.005 -0.015 0.025
		vertex -0.005 -0.015 0.065
	endloop
endfacet
facet normal -0.0 1.0 0.0
	outer loop
		vertex -0.005 -0.015 0.065
		vertex 0.005 -0.015 0.065
		vertex 0.005 -0.015 0.025
	endloop
endfacet
facet normal 0.0 0.0 1.0
	outer loop
		vertex 0.005 -0.015 0.065
		vertex -0.005 -0.015 0.065
		vertex -0.005 -0.025 0.065
	endloop
endfacet
facet normal 0.0 0.0 1.0
	outer loop
		vertex -0.005 -0.025 0.065
		vertex 0.005 -0.025 0.065
		vertex 0.005 -0.015 0.065
	endloop
endfacet
facet normal 0.0 -1.0 0.0
	outer loop
		vertex -0.005 -0.025 0.065
		vertex -0.005 -0.025 0.025
		vertex 0.005 -0.025 0.025
	endloop
endfacet
facet normal 0.0 -1.0 0.0
	outer loop
		vertex 0.005 -0.025 0.025
		vertex 0.005 -0.025 0.065
		vertex -0.005 -0.025 0.065
	endloop
endfacet
facet normal 0.0 2.7030000000000007e-05 -1.4660000000000021e-06
	outer loop
		vertex -0.005 0.025 0.025
		vertex 0.005 0.025 0.025
		vertex 0.005 0.0248534 0.022297
	endloop
endfacet
facet normal 0.0 2.6713000000000013e-05 -4.379000000000015e-06
	outer loop
		vertex -0.005 0.0248534 0.022297
		vertex 0.005 0.0248534 0.022297
		vertex 0.005 0.0244155 0.0196257
	endloop
endfacet
facet normal 0.0 2.608199999999998e-05 -7.242000000000012e-06
	outer loop
		vertex -0.005 0.0244155 0.0196257
		vertex 0.005 0.0244155 0.0196257
		vertex 0.005 0.0236913 0.0170175
	endloop
endfacet
facet normal 0.0 2.514700000000002e-05 -1.0019e-05
	outer loop
		vertex -0.005 0.0236913 0.0170175
		vertex 0.005 0.0236913 0.0170175
		vertex 0.005 0.0226894 0.0145028
	endloop
endfacet
facet normal 0.0 2.391599999999999e-05 -1.2679999999999984e-05
	outer loop
		vertex -0.005 0.0226894 0.0145028
		vertex 0.005 0.0226894 0.0145028
		vertex 0.005 0.0214214 0.0121112
	endloop
endfacet
facet normal 0.0 2.2405600000000008e-05 -1.5190999999999989e-05
	outer loop
		vertex -0.005 0.0214214 0.0121112
		vertex 0.005 0.0214214 0.0121112
		vertex 0.005 0.0199023 0.00987064
	endloop
endfacet
facet normal 0.0 2.06313e-05 -1.7524000000000014e-05
	outer loop
		vertex -0.005 0.0199023 0.00987064
		vertex 0.005 0.0199023 0.00987064
		vertex 0.005 0.0181499 0.00780751
	endloop
endfacet
facet normal 0.0 1.86156e-05 -1.9652000000000004e-05
	outer loop
		vertex -0.005 0.0181499 0.00780751
		vertex 0.005 0.0181499 0.00780751
		vertex 0.005 0.0161847 0.00594595
	endloop
endfacet
facet normal 0.0 1.6381700000000006e-05 -2.154999999999999e-05
	outer loop
		vertex -0.005 0.0161847 0.00594595
		vertex 0.005 0.0161847 0.00594595
		vertex 0.005 0.0140297 0.00430778
	endloop
endfacet
facet normal 0.0 1.3955799999999996e-05 -2.3195000000000004e-05
	outer loop
		vertex -0.005 0.0140297 0.00430778
		vertex 0.005 0.0140297 0.00430778
		vertex 0.005 0.0117102 0.0029122
	endloop
endfacet
facet normal 0.0 1.1366200000000003e-05 -2.4567500000000005e-05
	outer loop
		vertex -0.005 0.0117102 0.0029122
		vertex 0.005 0.0117102 0.0029122
		vertex 0.005 0.00925345 0.00177558
	endloop
endfacet
facet normal 0.0 8.643299999999999e-06 -2.56524e-05
	outer loop
		vertex -0.005 0.00925345 0.00177558
		vertex 0.005 0.00925345 0.00177558
		vertex 0.005 0.00668821 0.00091125
	endloop
endfacet
facet normal 0.0 5.819129999999999e-06 -2.64366e-05
	outer loop
		vertex -0.005 0.00668821 0.00091125
		vertex 0.005 0.00668821 0.00091125
		vertex 0.005 0.00404455 0.000329337
	endloop
endfacet
facet normal 0.0 2.926723e-06 -2.6910800000000003e-05
	outer loop
		vertex -0.005 0.00404455 0.000329337
		vertex 0.005 0.00404455 0.000329337
		vertex 0.005 0.00135347 3.66647e-05
	endloop
endfacet
facet normal 0.0 0.0 -2.7069400000000002e-05
	outer loop
		vertex -0.005 0.00135347 3.66647e-05
		vertex 0.005 0.00135347 3.66647e-05
		vertex 0.005 -0.00135347 3.66647e-05
	endloop
endfacet
facet normal 0.0 -2.926723e-06 -2.6910800000000003e-05
	outer loop
		vertex -0.005 -0.00135347 3.66647e-05
		vertex 0.005 -0.00135347 3.66647e-05
		vertex 0.005 -0.00404455 0.000329337
	endloop
endfacet
facet normal 0.0 -5.819129999999999e-06 -2.64366e-05
	outer loop
		vertex -0.005 -0.00404455 0.000329337
		vertex 0.005 -0.00404455 0.000329337
		vertex 0.005 -0.00668821 0.00091125
	endloop
endfacet
facet normal 0.0 -8.643299999999999e-06 -2.56524e-05
	outer loop
		vertex -0.005 -0.00668821 0.00091125
		vertex 0.005 -0.00668821 0.00091125
		vertex 0.005 -0.00925345 0.00177558
	endloop
endfacet
facet normal 0.0 -1.1366200000000003e-05 -2.4567500000000005e-05
	outer loop
		vertex -0.005 -0.00925345 0.00177558
		vertex 0.005 -0.00925345 0.00177558
		vertex 0.005 -0.0117102 0.0029122
	endloop
endfacet
facet normal 0.0 -1.3955799999999996e-05 -2.3195000000000004e-05
	outer loop
		vertex -0.005 -0.0117102 0.0029122
		vertex 0.005 -0.0117102 0.0029122
		vertex 0.005 -0.0140297 0.00430778
	endloop
endfacet
facet normal 0.0 -1.6381700000000006e-05 -2.154999999999999e-05
	outer loop
		vertex -0.005 -0.0140297 0.00430778
		vertex 0.005 -0.0140297 0.00430778
		vertex 0.005 -0.0161847 0.00594595
	endloop
endfacet
facet normal 0.0 -1.86156e-05 -1.9652000000000004e-05
	outer loop
		vertex -0.005 -0.0161847 0.00594595
		vertex 0.005 -0.0161847 0.00594595
		vertex 0.005 -0.0181499 0.00780751
	endloop
endfacet
facet normal 0.0 -2.06313e-05 -1.7524000000000014e-05
	outer loop
		vertex -0.005 -0.0181499 0.00780751
		vertex 0.005 -0.0181499 0.00780751
		vertex 0.005 -0.0199023 0.00987064
	endloop
endfacet
facet normal 0.0 -2.2405600000000008e-05 -1.5190999999999989e-05
	outer loop
		vertex -0.005 -0.0199023 0.00987064
		vertex 0.005 -0.0199023 0.00987064
		vertex 0.005 -0.0214214 0.0121112
	endloop
endfacet
facet normal 0.0 -2.391599999999999e-05 -1.2679999999999984e-05
	outer loop
		vertex -0.005 -0.0214214 0.0121112
		vertex 0.005 -0.0214214 0.0121112
		vertex 0.005 -0.0226894 0.0145028
	endloop
endfacet
facet normal 0.0 -2.514700000000002e-05 -1.0019e-05
	outer loop
		vertex -0.005 -0.0226894 0.0145028
		vertex 0.005 -0.0226894 0.0145028
		vertex 0.005 -0.0236913 0.0170175
	endloop
endfacet
facet normal 0.0 -2.608199999999998e-05 -7.242000000000012e-06
	outer loop
		vertex -0.005 -0.0236913 0.0170175
		vertex 0.005 -0.0236913 0.0170175
		vertex 0.005 -0.0244155 0.0196257
	endloop
endfacet
facet normal 0.0 -2.6713000000000013e-05 -4.379000000000015e-06
	outer loop
		vertex -0.005 -0.0244155 0.0196257
		vertex 0.005 -0.0244155 0.0196257
		vertex 0.005 -0.0248534 0.022297
	endloop
endfacet
facet normal 0.0 -2.7030000000000007e-05 -1.4660000000000021e-06
	outer loop
		vertex -0.005 -0.0248534 0.022297
		vertex 0.005 -0.0248534 0.022297
		vertex 0.005 -0.025 0.025
	endloop
endfacet
facet normal -0.0 -2.7030000000000007e-05 -1.4660000000000021e-06
	outer loop
		vertex 0.005 -0.025 0.025
		vertex -0.005 -0.025 0.025
		vertex -0.005 -0.0248534 0.022297
	endloop
endfacet
facet normal -0.0 -2.6713000000000013e-05 -4.379000000000015e-06
	outer loop
		vertex 0.005 -0.0248534 0.022297
		vertex -0.005 -0.0248534 0.022297
		vertex -0.005 -0.0244155 0.0196257
	endloop
endfacet
facet normal -0.0 -2.608199999999998e-05 -7.242000000000012e-06
	outer loop
		vertex 0.005 -0.0244155 0.0196257
		vertex -0.005 -0.0244155 0.0196257
		vertex -0.005 -0.0236913 0.0170175
	endloop
endfacet
facet normal -0.0 -2.514700000000002e-05 -1.0019e-05
	outer loop
		vertex 0.005 -0.0236913 0.0170175
		vertex -0.005 -0.0236913 0.0170175
		vertex -0.005 -0.0226894 0.0145028
	endloop
endfacet
facet normal -0.0 -2.391599999999999e-05 -1.2679999999999984e-05
	outer loop
		vertex 0.005 -0.0226894 0.0145028
		vertex -0.005 -0.0226894 0.0145028
		vertex -0.005 -0.0214214 0.0121112
	endloop
endfacet
facet normal -0.0 -2.2405600000000008e-05 -1.5190999999999989e-05
	outer loop
		vertex 0.005 -0.0214214 0.0121112
		vertex -0.005 -0.0214214 0.0121112
		vertex -0.005 -0.0199023 0.00987064
	endloop
endfacet
facet normal -0.0 -2.06313e-05 -1.7524000000000014e-05
	outer loop
		vertex 0.005 -0.0199023 0.00987064
		vertex -0.005 -0.0199023 0.00987064
		vertex -0.005 -0.0181499 0.00780751
	endloop
endfacet
facet normal -0.0 -1.86156e-05 -1.9652000000000004e-05
	outer loop
		vertex 0.005 -0.0181499 0.00780751
		vertex -0.005 -0.0181499 0.00780751
		vertex -0.005 -0.0161847 0.00594595
	endloop
endfacet
facet normal -0.0 -1.6381700000000006e-05 -2.154999999999999e-05
	outer loop
		vertex 0.005 -0.0161847 0.00594595
		vertex -0.005 -0.0161847 0.00594595
		vertex -0.005 -0.0140297 0.00430778
	endloop
endfacet
facet normal -0.0 -1.3955799999999996e-05 -2.3195000000000004e-05
	outer loop
		vertex 0.005 -0.0140297 0.00430778
		vertex -0.005 -0.0140297 0.00430778
		vertex -0.005 -0.0117102 0.0029122
	endloop
endfacet
facet normal -0.0 -1.1366200000000003e-05 -2.4567500000000005e-05
	outer loop
		vertex 0.005 -0.0117102 0.0029122
		vertex -0.005 -0.0117102 0.0029122
		vertex -0.005 -0.00925345 0.00177558
	endloop
endfacet
facet normal -0.0 -8.643299999999999e-06 -2.56524e-05
	outer loop
		vertex 0.005 -0.00925345 0.00177558
		vertex -0.005 -0.00925345 0.00177558
		vertex -0.005 -0.00668821 0.00091125
	endloop
endfacet
facet normal -0.0 -5.819129999999999e-06 -2.64366e-05
	outer loop
		vertex 0.005 -0.00668821 0.00091125
		vertex -0.005 -0.00668821 0.00091125
		vertex -0.005 -0.00404455 0.000329337
	endloop
endfacet
facet normal -0.0 -2.926723e-06 -2.6910800000000003e-05
	outer loop
		vertex 0.005 -0.00404455 0.000329337
		vertex -0.005 -0.00404455 0.000329337
		vertex -0.005 -0.00135347 3.66647e-05
	endloop
endfacet
facet normal 0.0 0.0 -2.7069400000000002e-05
	outer loop
		vertex 0.005 -0.00135347 3.66647e-05
		vertex -0.005 -0.00135347 3.66647e-05
		vertex -0.005 0.00135347 3.66647e-05
	endloop
endfacet
facet normal 0.0 2.926723e-06 -2.6910800000000003e-05
	outer loop
		vertex 0.005 0.00135347 3.66647e-05
		vertex -0.005 0.00135347 3.66647e-05
		vertex -0.005 0.00404455 0.000329337
	endloop
endfacet
facet normal 0.0 5.819129999999999e-06 -2.64366e-05
	outer loop
		vertex 0.005 0.00404455 0.000329337
		vertex -0.005 0.00404455 0.000329337
		vertex -0.005 0.00668821 0.00091125
	endloop
endfacet
facet normal 0.0 8.643299999999999e-06 -2.56524e-05
	outer loop
		vertex 0.005 0.00668821 0.00091125
		vertex -0.005 0.00668821 0.00091125
		vertex -0.005 0.00925345 0.00177558
	endloop
endfacet
facet normal 0.0 1.1366200000000003e-05 -2.4567500000000005e-05
	outer loop
		vertex 0.005 0.00925345 0.00177558
		vertex -0.005 0.00925345 0.00177558
		vertex -0.005 0.0117102 0.0029122
	endloop
endfacet
facet normal 0.0 1.3955799999999996e-05 -2.3195000000000004e-05
	outer loop
		vertex 0.005 0.0117102 0.0029122
		vertex -0.005 0.0117102 0.0029122
		vertex -0.005 0.0140297 0.00430778
	endloop
endfacet
facet normal 0.0 1.6381700000000006e-05 -2.154999999999999e-05
	outer loop
		vertex 0.005 0.0140297 0.00430778
		vertex -0.005 0.0140297 0.00430778
		vertex -0.005 0.0161847 0.00594595
	endloop
endfacet
facet normal 0.0 1.86156e-05 -1.9652000000000004e-05
	outer loop
		vertex 0.005 0.0161847 0.00594595
		vertex -0.005 0.0161847 0.00594595
		vertex -0.005 0.0181499 0.00780751
	endloop
endfacet
facet normal 0.0 2.06313e-05 -1.7524000000000014e-05
	outer loop
		vertex 0.005 0.0181499 0.00780751
		vertex -0.005 0.0181499 0.00780751
		vertex -0.005 0.0199023 0.00987064
	endloop
endfacet
facet normal 0.0 2.2405600000000008e-05 -1.5190999999999989e-05
	outer loop
		vertex 0.005 0.0199023 0.00987064
		vertex -0.005 0.0199023 0.00987064
		vertex -0.005 0.0214214 0.0121112
	endloop
endfacet
facet normal 0.0 2.391599999999999e-05 -1.2679999999999984e-05
	outer loop
		vertex 0.005 0.0214214 0.0121112
		vertex -0.005 0.0214214 0.0121112
		vertex -0.005 0.0226894 0.0145028
	endloop
endfacet
facet normal 0.0 2.514700000000002e-05 -1.0019e-05
	outer loop
		vertex 0.005 0.0226894 0.0145028
		vertex -0.005 0.0226894 0.0145028
		vertex -0.005 0.0236913 0.0170175
	endloop
endfacet
facet normal 0.0 2.608199999999998e-05 -7.242000000000012e-06
	outer loop
		vertex 0.005 0.0236913 0.0170175
		vertex -0.005 0.0236913 0.0170175
		vertex -0.005 0.0244155 0.0196257
	endloop
endfacet
facet normal 0.0 2.6713000000000013e-05 -4.379000000000015e-06
	outer loop
		vertex 0.005 0.0244155 0.0196257
		vertex -0.005 0.0244155 0.0196257
		vertex -0.005 0.0248534 0.022297
	endloop
endfacet
facet normal 0.0 2.7030000000000007e-05 -1.4660000000000021e-06
	outer loop
		vertex 0.005 0.0248534 0.022297
		vertex -0.005 0.0248534 0.022297
		vertex -0.005 0.025 0.025
	endloop
endfacet
facet normal 1.6217945823200004e-05 0.0 0.0
	outer loop
		vertex 0.005 -0.00925345 0.00177558
		vertex 0.005 -0.00555207 0.0110653
		vertex 0.005 -0.00702613 0.0117473
	endloop
endfacet
facet normal 1.6217593107000003e-05 0.0 0.0
	outer loop
		vertex 0.005 -0.00668821 0.00091125
		vertex 0.005 -0.00401293 0.0105468
		vertex 0.005 -0.00555207 0.0110653
	endloop
endfacet
facet normal 1.62178490824038e-05 0.0 -0.0
	outer loop
		vertex 0.005 -0.00135347 3.66647e-05
		vertex 0.005 -0.000812084 0.010022
		vertex 0.005 -0.00242673 0.0101976
	endloop
endfacet
facet normal 2.7029703536982003e-05 0.0 0.0
	outer loop
		vertex 0.005 -0.00135347 3.66647e-05
		vertex 0.005 0.00135347 3.66647e-05
		vertex 0.005 0.000812084 0.010022
	endloop
endfacet
facet normal 2.7029575108199997e-05 0.0 0.0
	outer loop
		vertex 0.005 -0.00555207 0.0110653
		vertex 0.005 -0.00925345 0.00177558
		vertex 0.005 -0.00668821 0.00091125
	endloop
endfacet
facet normal 2.7029762652239994e-05 -0.0 0.0
	outer loop
		vertex 0.005 -0.00668821 0.00091125
		vertex 0.005 -0.00404455 0.000329337
		vertex 0.005 -0.00242673 0.0101976
	endloop
endfacet
facet normal 1.62178620635304e-05 0.0 0.0
	outer loop
		vertex 0.005 0.000812084 0.010022
		vertex 0.005 -0.000812084 0.010022
		vertex 0.005 -0.00135347 3.66647e-05
	endloop
endfacet
facet normal 2.7029776294426e-05 0.0 0.0
	outer loop
		vertex 0.005 0.00135347 3.66647e-05
		vertex 0.005 0.00404455 0.000329337
		vertex 0.005 0.00242673 0.0101976
	endloop
endfacet
facet normal 2.703000000000001e-05 0.0 -0.0
	outer loop
		vertex 0.005 0.0248534 0.022297
		vertex 0.005 0.025 0.025
		vertex 0.005 0.015 0.025
	endloop
endfacet
facet normal 1.0 0.0 0.0
	outer loop
		vertex 0.005 0.015 0.065
		vertex 0.005 0.015 0.025
		vertex 0.005 0.025 0.025
	endloop
endfacet
facet normal 1.621747381049998e-05 0.0 0.0
	outer loop
		vertex 0.005 -0.0161847 0.00594595
		vertex 0.005 -0.00971079 0.0135676
		vertex 0.005 -0.0108899 0.0146845
	endloop
endfacet
facet normal 2.70299924413e-05 -0.0 0.0
	outer loop
		vertex 0.005 -0.0161847 0.00594595
		vertex 0.005 -0.0140297 0.00430778
		vertex 0.005 -0.00841781 0.0125847
	endloop
endfacet
facet normal 1.6218117186e-05 0.0 0.0
	outer loop
		vertex 0.005 -0.00242673 0.0101976
		vertex 0.005 -0.00401293 0.0105468
		vertex 0.005 -0.00668821 0.00091125
	endloop
endfacet
facet normal 1.6217849082403803e-05 0.0 0.0
	outer loop
		vertex 0.005 0.00242673 0.0101976
		vertex 0.005 0.000812084 0.010022
		vertex 0.005 0.00135347 3.66647e-05
	endloop
endfacet
facet normal 1.6217421678899986e-05 0.0 0.0
	outer loop
		vertex 0.005 0.0181499 0.00780751
		vertex 0.005 0.0108899 0.0146845
		vertex 0.005 0.00971079 0.0135676
	endloop
endfacet
facet normal 1.621822375e-05 0.0 0.0
	outer loop
		vertex 0.005 0.0199023 0.00987064
		vertex 0.005 0.0119414 0.0159224
		vertex 0.005 0.0108899 0.0146845
	endloop
endfacet
facet normal 1.621805499999998e-05 0.0 0.0
	outer loop
		vertex 0.005 0.0248534 0.022297
		vertex 0.005 0.0149121 0.0233782
		vertex 0.005 0.0146493 0.0217754
	endloop
endfacet
facet normal 1.0 0.0 -0.0
	outer loop
		vertex 0.005 0.025 0.025
		vertex 0.005 0.025 0.065
		vertex 0.005 0.015 0.065
	endloop
endfacet
facet normal 1.621713335000001e-05 0.0 0.0
	outer loop
		vertex 0.005 -0.0236913 0.0170175
		vertex 0.005 -0.0142148 0.0202105
		vertex 0.005 -0.0146493 0.0217754
	endloop
endfacet
facet normal 1.6217945719999976e-05 0.0 0.0
	outer loop
		vertex 0.005 -0.0226894 0.0145028
		vertex 0.005 -0.0136136 0.0187017
		vertex 0.005 -0.0142148 0.0202105
	endloop
endfacet
facet normal 1.6217847156000007e-05 0.0 0.0
	outer loop
		vertex 0.005 -0.00841781 0.0125847
		vertex 0.005 -0.00971079 0.0135676
		vertex 0.005 -0.0161847 0.00594595
	endloop
endfacet
facet normal 2.70300088606e-05 -0.0 0.0
	outer loop
		vertex 0.005 -0.0140297 0.00430778
		vertex 0.005 -0.0117102 0.0029122
		vertex 0.005 -0.00702613 0.0117473
	endloop
endfacet
facet normal 2.7029776294425997e-05 0.0 0.0
	outer loop
		vertex 0.005 -0.00242673 0.0101976
		vertex 0.005 -0.00404455 0.000329337
		vertex 0.005 -0.00135347 3.66647e-05
	endloop
endfacet
facet normal 1.6218117185999995e-05 0.0 0.0
	outer loop
		vertex 0.005 0.00668821 0.00091125
		vertex 0.005 0.00401293 0.0105468
		vertex 0.005 0.00242673 0.0101976
	endloop
endfacet
facet normal 1.62173451708e-05 0.0 0.0
	outer loop
		vertex 0.005 0.00925345 0.00177558
		vertex 0.005 0.00555207 0.0110653
		vertex 0.005 0.00401293 0.0105468
	endloop
endfacet
facet normal 2.7029639568400005e-05 0.0 -0.0
	outer loop
		vertex 0.005 0.00925345 0.00177558
		vertex 0.005 0.0117102 0.0029122
		vertex 0.005 0.00702613 0.0117473
	endloop
endfacet
facet normal 2.7029561076000007e-05 0.0 0.0
	outer loop
		vertex 0.005 0.0108899 0.0146845
		vertex 0.005 0.0181499 0.00780751
		vertex 0.005 0.0199023 0.00987064
	endloop
endfacet
facet normal 2.702995841e-05 0.0 -0.0
	outer loop
		vertex 0.005 0.0199023 0.00987064
		vertex 0.005 0.0214214 0.0121112
		vertex 0.005 0.0128529 0.0172667
	endloop
endfacet
facet normal 1.6217876230000017e-05 0.0 0.0
	outer loop
		vertex 0.005 0.0226894 0.0145028
		vertex 0.005 0.0136136 0.0187017
		vertex 0.005 0.0128529 0.0172667
	endloop
endfacet
facet normal 2.702962125000001e-05 0.0 -0.0
	outer loop
		vertex 0.005 0.0226894 0.0145028
		vertex 0.005 0.0236913 0.0170175
		vertex 0.005 0.0142148 0.0202105
	endloop
endfacet
facet normal 1.6217171030000008e-05 0.0 0.0
	outer loop
		vertex 0.005 0.0244155 0.0196257
		vertex 0.005 0.0146493 0.0217754
		vertex 0.005 0.0142148 0.0202105
	endloop
endfacet
facet normal 1.6217837820000033e-05 0.0 0.0
	outer loop
		vertex 0.005 0.015 0.025
		vertex 0.005 0.0149121 0.0233782
		vertex 0.005 0.0248534 0.022297
	endloop
endfacet
facet normal 1.0 0.0 0.0
	outer loop
		vertex 0.005 -0.025 0.065
		vertex 0.005 -0.025 0.025
		vertex 0.005 -0.015 0.025
	endloop
endfacet
facet normal 1.6217837820000033e-05 0.0 0.0
	outer loop
		vertex 0.005 -0.0248534 0.022297
		vertex 0.005 -0.0149121 0.0233782
		vertex 0.005 -0.015 0.025
	endloop
endfacet
facet normal 2.7029621250000013e-05 0.0 0.0
	outer loop
		vertex 0.005 -0.0142148 0.0202105
		vertex 0.005 -0.0236913 0.0170175
		vertex 0.005 -0.0226894 0.0145028
	endloop
endfacet
facet normal 2.702959859999998e-05 -0.0 0.0
	outer loop
		vertex 0.005 -0.0226894 0.0145028
		vertex 0.005 -0.0214214 0.0121112
		vertex 0.005 -0.0128529 0.0172667
	endloop
endfacet
facet normal 1.621801711e-05 0.0 0.0
	outer loop
		vertex 0.005 -0.0199023 0.00987064
		vertex 0.005 -0.0119414 0.0159224
		vertex 0.005 -0.0128529 0.0172667
	endloop
endfacet
facet normal 2.7029561076000007e-05 -0.0 0.0
	outer loop
		vertex 0.005 -0.0199023 0.00987064
		vertex 0.005 -0.0181499 0.00780751
		vertex 0.005 -0.0108899 0.0146845
	endloop
endfacet
facet normal 1.62182207116e-05 0.0 0.0
	outer loop
		vertex 0.005 -0.00702613 0.0117473
		vertex 0.005 -0.00841781 0.0125847
		vertex 0.005 -0.0140297 0.00430778
	endloop
endfacet
facet normal 2.7029762652239994e-05 0.0 0.0
	outer loop
		vertex 0.005 0.00242673 0.0101976
		vertex 0.005 0.00404455 0.000329337
		vertex 0.005 0.00668821 0.00091125
	endloop
endfacet
facet normal 1.62179458232e-05 0.0 0.0
	outer loop
		vertex 0.005 0.00702613 0.0117473
		vertex 0.005 0.00555207 0.0110653
		vertex 0.005 0.00925345 0.00177558
	endloop
endfacet
facet normal 2.7030157386200003e-05 0.0 -0.0
	outer loop
		vertex 0.005 0.0117102 0.0029122
		vertex 0.005 0.0140297 0.00430778
		vertex 0.005 0.00841781 0.0125847
	endloop
endfacet
facet normal 1.621784715600001e-05 0.0 0.0
	outer loop
		vertex 0.005 0.0161847 0.00594595
		vertex 0.005 0.00971079 0.0135676
		vertex 0.005 0.00841781 0.0125847
	endloop
endfacet
facet normal 1.6218017110000004e-05 0.0 0.0
	outer loop
		vertex 0.005 0.0128529 0.0172667
		vertex 0.005 0.0119414 0.0159224
		vertex 0.005 0.0199023 0.00987064
	endloop
endfacet
facet normal 1.6217945719999976e-05 0.0 0.0
	outer loop
		vertex 0.005 0.0142148 0.0202105
		vertex 0.005 0.0136136 0.0187017
		vertex 0.005 0.0226894 0.0145028
	endloop
endfacet
facet normal 2.7029803690000013e-05 -0.0 0.0
	outer loop
		vertex 0.005 0.0146493 0.0217754
		vertex 0.005 0.0244155 0.0196257
		vertex 0.005 0.0248534 0.022297
	endloop
endfacet
facet normal 2.703000000000001e-05 0.0 0.0
	outer loop
		vertex 0.005 -0.015 0.025
		vertex 0.005 -0.025 0.025
		vertex 0.005 -0.0248534 0.022297
	endloop
endfacet
facet normal 2.7029803690000017e-05 0.0 0.0
	outer loop
		vertex 0.005 -0.0248534 0.022297
		vertex 0.005 -0.0244155 0.0196257
		vertex 0.005 -0.0146493 0.0217754
	endloop
endfacet
facet normal 1.6217876230000017e-05 0.0 0.0
	outer loop
		vertex 0.005 -0.0128529 0.0172667
		vertex 0.005 -0.0136136 0.0187017
		vertex 0.005 -0.0226894 0.0145028
	endloop
endfacet
facet normal 1.6218223750000003e-05 0.0 0.0
	outer loop
		vertex 0.005 -0.0108899 0.0146845
		vertex 0.005 -0.0119414 0.0159224
		vertex 0.005 -0.0199023 0.00987064
	endloop
endfacet
facet normal 2.7029639568400005e-05 0.0 0.0
	outer loop
		vertex 0.005 -0.00702613 0.0117473
		vertex 0.005 -0.0117102 0.0029122
		vertex 0.005 -0.00925345 0.00177558
	endloop
endfacet
facet normal 1.6218072185999995e-05 0.0 0.0
	outer loop
		vertex 0.005 0.00841781 0.0125847
		vertex 0.005 0.00702613 0.0117473
		vertex 0.005 0.0117102 0.0029122
	endloop
endfacet
facet normal 2.7029638479600002e-05 0.0 0.0
	outer loop
		vertex 0.005 0.00971079 0.0135676
		vertex 0.005 0.0161847 0.00594595
		vertex 0.005 0.0181499 0.00780751
	endloop
endfacet
facet normal 2.702897789999998e-05 0.0 0.0
	outer loop
		vertex 0.005 0.0142148 0.0202105
		vertex 0.005 0.0236913 0.0170175
		vertex 0.005 0.0244155 0.0196257
	endloop
endfacet
facet normal 1.6218054999999983e-05 0.0 0.0
	outer loop
		vertex 0.005 -0.0146493 0.0217754
		vertex 0.005 -0.0149121 0.0233782
		vertex 0.005 -0.0248534 0.022297
	endloop
endfacet
facet normal 2.702995841e-05 0.0 0.0
	outer loop
		vertex 0.005 -0.0128529 0.0172667
		vertex 0.005 -0.0214214 0.0121112
		vertex 0.005 -0.0199023 0.00987064
	endloop
endfacet
facet normal 2.70298230444e-05 0.0 0.0
	outer loop
		vertex 0.005 0.00401293 0.0105468
		vertex 0.005 0.00668821 0.00091125
		vertex 0.005 0.00925345 0.00177558
	endloop
endfacet
facet normal 2.7029598599999977e-05 0.0 0.0
	outer loop
		vertex 0.005 0.0128529 0.0172667
		vertex 0.005 0.0214214 0.0121112
		vertex 0.005 0.0226894 0.0145028
	endloop
endfacet
facet normal 2.7029015579999986e-05 0.0 0.0
	outer loop
		vertex 0.005 -0.0146493 0.0217754
		vertex 0.005 -0.0244155 0.0196257
		vertex 0.005 -0.0236913 0.0170175
	endloop
endfacet
facet normal 2.7029992441299993e-05 0.0 0.0
	outer loop
		vertex 0.005 0.00841781 0.0125847
		vertex 0.005 0.0140297 0.00430778
		vertex 0.005 0.0161847 0.00594595
	endloop
endfacet
facet normal 2.7029586348e-05 0.0 0.0
	outer loop
		vertex 0.005 -0.0108899 0.0146845
		vertex 0.005 -0.0181499 0.00780751
		vertex 0.005 -0.0161847 0.00594595
	endloop
endfacet
facet normal 1.0 0.0 -0.0
	outer loop
		vertex 0.005 -0.015 0.025
		vertex 0.005 -0.015 0.065
		vertex 0.005 -0.025 0.065
	endloop
endfacet
facet normal -1.62178490824038e-05 0.0 0.0
	outer loop
		vertex -0.005 0.00135347 3.66647e-05
		vertex -0.005 0.000812084 0.010022
		vertex -0.005 0.00242673 0.0101976
	endloop
endfacet
facet normal -1.62178620635304e-05 0.0 0.0
	outer loop
		vertex -0.005 -0.00135347 3.66647e-05
		vertex -0.005 -0.000812084 0.010022
		vertex -0.005 0.000812084 0.010022
	endloop
endfacet
facet normal -1.0 0.0 -0.0
	outer loop
		vertex -0.005 0.025 0.065
		vertex -0.005 0.025 0.025
		vertex -0.005 0.015 0.025
	endloop
endfacet
facet normal -1.6217837820000033e-05 0.0 0.0
	outer loop
		vertex -0.005 0.0248534 0.022297
		vertex -0.005 0.0149121 0.0233782
		vertex -0.005 0.015 0.025
	endloop
endfacet
facet normal -2.7029703536982003e-05 0.0 -0.0
	outer loop
		vertex -0.005 0.000812084 0.010022
		vertex -0.005 0.00135347 3.66647e-05
		vertex -0.005 -0.00135347 3.66647e-05
	endloop
endfacet
facet normal -2.7029776294426e-05 0.0 0.0
	outer loop
		vertex -0.005 -0.00135347 3.66647e-05
		vertex -0.005 -0.00404455 0.000329337
		vertex -0.005 -0.00242673 0.0101976
	endloop
endfacet
facet normal -1.6218117185999995e-05 0.0 0.0
	outer loop
		vertex -0.005 -0.00668821 0.00091125
		vertex -0.005 -0.00401293 0.0105468
		vertex -0.005 -0.00242673 0.0101976
	endloop
endfacet
facet normal -2.7029575108199997e-05 0.0 0.0
	outer loop
		vertex -0.005 -0.00668821 0.00091125
		vertex -0.005 -0.00925345 0.00177558
		vertex -0.005 -0.00555207 0.0110653
	endloop
endfacet
facet normal -2.703000000000001e-05 0.0 0.0
	outer loop
		vertex -0.005 0.015 0.025
		vertex -0.005 0.025 0.025
		vertex -0.005 0.0248534 0.022297
	endloop
endfacet
facet normal -2.7029803690000017e-05 0.0 0.0
	outer loop
		vertex -0.005 0.0248534 0.022297
		vertex -0.005 0.0244155 0.0196257
		vertex -0.005 0.0146493 0.0217754
	endloop
endfacet
facet normal -2.7029561076000007e-05 -0.0 0.0
	outer loop
		vertex -0.005 0.0199023 0.00987064
		vertex -0.005 0.0181499 0.00780751
		vertex -0.005 0.0108899 0.0146845
	endloop
endfacet
facet normal -2.7029638479600002e-05 -0.0 0.0
	outer loop
		vertex -0.005 0.0181499 0.00780751
		vertex -0.005 0.0161847 0.00594595
		vertex -0.005 0.00971079 0.0135676
	endloop
endfacet
facet normal -1.6217945823200004e-05 0.0 0.0
	outer loop
		vertex -0.005 0.00925345 0.00177558
		vertex -0.005 0.00555207 0.0110653
		vertex -0.005 0.00702613 0.0117473
	endloop
endfacet
facet normal -2.7029823044399996e-05 -0.0 0.0
	outer loop
		vertex -0.005 0.00925345 0.00177558
		vertex -0.005 0.00668821 0.00091125
		vertex -0.005 0.00401293 0.0105468
	endloop
endfacet
facet normal -2.7029762652239994e-05 -0.0 0.0
	outer loop
		vertex -0.005 0.00668821 0.00091125
		vertex -0.005 0.00404455 0.000329337
		vertex -0.005 0.00242673 0.0101976
	endloop
endfacet
facet normal -1.6217849082403803e-05 0.0 0.0
	outer loop
		vertex -0.005 -0.00242673 0.0101976
		vertex -0.005 -0.000812084 0.010022
		vertex -0.005 -0.00135347 3.66647e-05
	endloop
endfacet
facet normal -1.6217593107000007e-05 0.0 -0.0
	outer loop
		vertex -0.005 -0.00555207 0.0110653
		vertex -0.005 -0.00401293 0.0105468
		vertex -0.005 -0.00668821 0.00091125
	endloop
endfacet
facet normal -2.7029639568400005e-05 0.0 0.0
	outer loop
		vertex -0.005 -0.00925345 0.00177558
		vertex -0.005 -0.0117102 0.0029122
		vertex -0.005 -0.00702613 0.0117473
	endloop
endfacet
facet normal -1.6218054999999983e-05 0.0 0.0
	outer loop
		vertex -0.005 0.0146493 0.0217754
		vertex -0.005 0.0149121 0.0233782
		vertex -0.005 0.0248534 0.022297
	endloop
endfacet
facet normal -2.702897789999998e-05 -0.0 0.0
	outer loop
		vertex -0.005 0.0244155 0.0196257
		vertex -0.005 0.0236913 0.0170175
		vertex -0.005 0.0142148 0.0202105
	endloop
endfacet
facet normal -1.6217945719999976e-05 0.0 0.0
	outer loop
		vertex -0.005 0.0226894 0.0145028
		vertex -0.005 0.0136136 0.0187017
		vertex -0.005 0.0142148 0.0202105
	endloop
endfacet
facet normal -2.702959859999998e-05 -0.0 0.0
	outer loop
		vertex -0.005 0.0226894 0.0145028
		vertex -0.005 0.0214214 0.0121112
		vertex -0.005 0.0128529 0.0172667
	endloop
endfacet
facet normal -2.7030102720000004e-05 -0.0 0.0
	outer loop
		vertex -0.005 0.0214214 0.0121112
		vertex -0.005 0.0199023 0.00987064
		vertex -0.005 0.0119414 0.0159224
	endloop
endfacet
facet normal -1.6217421678899986e-05 0.0 0.0
	outer loop
		vertex -0.005 0.00971079 0.0135676
		vertex -0.005 0.0108899 0.0146845
		vertex -0.005 0.0181499 0.00780751
	endloop
endfacet
facet normal -1.6218072185999995e-05 0.0 0.0
	outer loop
		vertex -0.005 0.0117102 0.0029122
		vertex -0.005 0.00702613 0.0117473
		vertex -0.005 0.00841781 0.0125847
	endloop
endfacet
facet normal -1.6217345170800004e-05 0.0 0.0
	outer loop
		vertex -0.005 0.00401293 0.0105468
		vertex -0.005 0.00555207 0.0110653
		vertex -0.005 0.00925345 0.00177558
	endloop
endfacet
facet normal -2.7029776294425997e-05 0.0 -0.0
	outer loop
		vertex -0.005 0.00242673 0.0101976
		vertex -0.005 0.00404455 0.000329337
		vertex -0.005 0.00135347 3.66647e-05
	endloop
endfacet
facet normal -1.62179458232e-05 0.0 -0.0
	outer loop
		vertex -0.005 -0.00702613 0.0117473
		vertex -0.005 -0.00555207 0.0110653
		vertex -0.005 -0.00925345 0.00177558
	endloop
endfacet
facet normal -1.621784715600001e-05 0.0 0.0
	outer loop
		vertex -0.005 -0.0161847 0.00594595
		vertex -0.005 -0.00971079 0.0135676
		vertex -0.005 -0.00841781 0.0125847
	endloop
endfacet
facet normal -2.7029586348000005e-05 0.0 0.0
	outer loop
		vertex -0.005 -0.0161847 0.00594595
		vertex -0.005 -0.0181499 0.00780751
		vertex -0.005 -0.0108899 0.0146845
	endloop
endfacet
facet normal -2.7029888479999982e-05 0.0 0.0
	outer loop
		vertex -0.005 -0.0214214 0.0121112
		vertex -0.005 -0.0226894 0.0145028
		vertex -0.005 -0.0136136 0.0187017
	endloop
endfacet
facet normal -2.702962125000001e-05 0.0 0.0
	outer loop
		vertex -0.005 -0.0226894 0.0145028
		vertex -0.005 -0.0236913 0.0170175
		vertex -0.005 -0.0142148 0.0202105
	endloop
endfacet
facet normal -1.621717103000001e-05 0.0 0.0
	outer loop
		vertex -0.005 0.0142148 0.0202105
		vertex -0.005 0.0146493 0.0217754
		vertex -0.005 0.0244155 0.0196257
	endloop
endfacet
facet normal -1.6217876230000017e-05 0.0 0.0
	outer loop
		vertex -0.005 0.0128529 0.0172667
		vertex -0.005 0.0136136 0.0187017
		vertex -0.005 0.0226894 0.0145028
	endloop
endfacet
facet normal -1.6218223750000003e-05 0.0 0.0
	outer loop
		vertex -0.005 0.0108899 0.0146845
		vertex -0.005 0.0119414 0.0159224
		vertex -0.005 0.0199023 0.00987064
	endloop
endfacet
facet normal -2.70299924413e-05 -0.0 0.0
	outer loop
		vertex -0.005 0.0161847 0.00594595
		vertex -0.005 0.0140297 0.00430778
		vertex -0.005 0.00841781 0.0125847
	endloop
endfacet
facet normal -2.7029639568400005e-05 0.0 0.0
	outer loop
		vertex -0.005 0.00702613 0.0117473
		vertex -0.005 0.0117102 0.0029122
		vertex -0.005 0.00925345 0.00177558
	endloop
endfacet
facet normal -2.7029762652239994e-05 0.0 0.0
	outer loop
		vertex -0.005 -0.00242673 0.0101976
		vertex -0.005 -0.00404455 0.000329337
		vertex -0.005 -0.00668821 0.00091125
	endloop
endfacet
facet normal -1.621822071159999e-05 0.0 0.0
	outer loop
		vertex -0.005 -0.0140297 0.00430778
		vertex -0.005 -0.00841781 0.0125847
		vertex -0.005 -0.00702613 0.0117473
	endloop
endfacet
facet normal -1.6217473810499984e-05 0.0 -0.0
	outer loop
		vertex -0.005 -0.0108899 0.0146845
		vertex -0.005 -0.00971079 0.0135676
		vertex -0.005 -0.0161847 0.00594595
	endloop
endfacet
facet normal -1.621822375e-05 0.0 0.0
	outer loop
		vertex -0.005 -0.0199023 0.00987064
		vertex -0.005 -0.0119414 0.0159224
		vertex -0.005 -0.0108899 0.0146845
	endloop
endfacet
facet normal -2.702995841e-05 0.0 0.0
	outer loop
		vertex -0.005 -0.0199023 0.00987064
		vertex -0.005 -0.0214214 0.0121112
		vertex -0.005 -0.0128529 0.0172667
	endloop
endfacet
facet normal -1.6217945719999976e-05 0.0 -0.0
	outer loop
		vertex -0.005 -0.0142148 0.0202105
		vertex -0.005 -0.0136136 0.0187017
		vertex -0.005 -0.0226894 0.0145028
	endloop
endfacet
facet normal -2.7029015579999982e-05 0.0 0.0
	outer loop
		vertex -0.005 -0.0236913 0.0170175
		vertex -0.005 -0.0244155 0.0196257
		vertex -0.005 -0.0146493 0.0217754
	endloop
endfacet
facet normal -2.703000000000001e-05 0.0 0.0
	outer loop
		vertex -0.005 -0.0248534 0.022297
		vertex -0.005 -0.025 0.025
		vertex -0.005 -0.015 0.025
	endloop
endfacet
facet normal -1.0 0.0 -0.0
	outer loop
		vertex -0.005 -0.015 0.065
		vertex -0.005 -0.015 0.025
		vertex -0.005 -0.025 0.025
	endloop
endfacet
facet normal -2.7029621250000013e-05 0.0 0.0
	outer loop
		vertex -0.005 0.0142148 0.0202105
		vertex -0.005 0.0236913 0.0170175
		vertex -0.005 0.0226894 0.0145028
	endloop
endfacet
facet normal -1.6217847156000007e-05 0.0 0.0
	outer loop
		vertex -0.005 0.00841781 0.0125847
		vertex -0.005 0.00971079 0.0135676
		vertex -0.005 0.0161847 0.00594595
	endloop
endfacet
facet normal -1.6218117186e-05 0.0 0.0
	outer loop
		vertex -0.005 0.00242673 0.0101976
		vertex -0.005 0.00401293 0.0105468
		vertex -0.005 0.00668821 0.00091125
	endloop
endfacet
facet normal -2.7029992441299993e-05 0.0 0.0
	outer loop
		vertex -0.005 -0.00841781 0.0125847
		vertex -0.005 -0.0140297 0.00430778
		vertex -0.005 -0.0161847 0.00594595
	endloop
endfacet
facet normal -1.6218017110000004e-05 0.0 -0.0
	outer loop
		vertex -0.005 -0.0128529 0.0172667
		vertex -0.005 -0.0119414 0.0159224
		vertex -0.005 -0.0199023 0.00987064
	endloop
endfacet
facet normal -1.621713335000001e-05 0.0 -0.0
	outer loop
		vertex -0.005 -0.0146493 0.0217754
		vertex -0.005 -0.0142148 0.0202105
		vertex -0.005 -0.0236913 0.0170175
	endloop
endfacet
facet normal -1.621805499999998e-05 0.0 0.0
	outer loop
		vertex -0.005 -0.0248534 0.022297
		vertex -0.005 -0.0149121 0.0233782
		vertex -0.005 -0.0146493 0.0217754
	endloop
endfacet
facet normal -1.0 0.0 0.0
	outer loop
		vertex -0.005 -0.025 0.025
		vertex -0.005 -0.025 0.065
		vertex -0.005 -0.015 0.065
	endloop
endfacet
facet normal -1.62178728e-05 0.0 0.0
	outer loop
		vertex -0.005 0.0119414 0.0159224
		vertex -0.005 0.0128529 0.0172667
		vertex -0.005 0.0214214 0.0121112
	endloop
endfacet
facet normal -2.70300088606e-05 0.0 0.0
	outer loop
		vertex -0.005 -0.00702613 0.0117473
		vertex -0.005 -0.0117102 0.0029122
		vertex -0.005 -0.0140297 0.00430778
	endloop
endfacet
facet normal -1.6217586350000018e-05 0.0 -0.0
	outer loop
		vertex -0.005 -0.0136136 0.0187017
		vertex -0.005 -0.0128529 0.0172667
		vertex -0.005 -0.0214214 0.0121112
	endloop
endfacet
facet normal -1.6217837820000033e-05 0.0 -0.0
	outer loop
		vertex -0.005 -0.015 0.025
		vertex -0.005 -0.0149121 0.0233782
		vertex -0.005 -0.0248534 0.022297
	endloop
endfacet
facet normal -2.7030157386200007e-05 0.0 0.0
	outer loop
		vertex -0.005 0.00841781 0.0125847
		vertex -0.005 0.0140297 0.00430778
		vertex -0.005 0.0117102 0.0029122
	endloop
endfacet
facet normal -2.7029803690000013e-05 -0.0 0.0
	outer loop
		vertex -0.005 -0.0146493 0.0217754
		vertex -0.005 -0.0244155 0.0196257
		vertex -0.005 -0.0248534 0.022297
	endloop
endfacet
facet normal -2.7029561076000007e-05 0.0 0.0
	outer loop
		vertex -0.005 -0.0108899 0.0146845
		vertex -0.005 -0.0181499 0.00780751
		vertex -0.005 -0.0199023 0.00987064
	endloop
endfacet
facet normal -1.0 0.0 0.0
	outer loop
		vertex -0.005 0.015 0.025
		vertex -0.005 0.015 0.065
		vertex -0.005 0.025 0.065
	endloop
endfacet
facet normal 0.0 1.0 0.0
	outer loop
		vertex 0.005 0.025 0.025
		vertex -0.005 0.025 0.025
		vertex -0.005 0.025 0.065
	endloop
endfacet
facet normal -0.0 1.0 0.0
	outer loop
		vertex -0.005 0.025 0.065
		vertex 0.005 0.025 0.065
		vertex 0.005 0.025 0.025
	endloop
endfacet
facet normal 0.0 0.0 1.0
	outer loop
		vertex 0.005 0.025 0.065
		vertex -0.005 0.025 0.065
		vertex -0.005 0.015 0.065
	endloop
endfacet
facet normal 0.0 0.0 1.0
	outer loop
		vertex -0.005 0.015 0.065
		vertex 0.005 0.015 0.065
		vertex 0.005 0.025 0.065
	endloop
endfacet
facet normal -0.0 -1.0 0.0
	outer loop
		vertex 0.005 0.015 0.065
		vertex -0.005 0.015 0.065
		vertex -0.005 0.015 0.025
	endloop
endfacet
facet normal 0.0 -1.0 0.0
	outer loop
		vertex -0.005 0.015 0.025
		vertex 0.005 0.015 0.025
		vertex 0.005 0.015 0.065
	endloop
endfacet
endsolid Rounded_U